<svg xmlns="http://www.w3.org/2000/svg" width="16" height="16" fill="none" viewBox="0 0 16 16"><path fill="url(#a)" d="M7.458 5.437h-.001c-.413-.442-1.035-.712-1.865-.712-.814 0-1.537.257-2.057.778-.521.52-.81 1.276-.81 2.217 0 .937.289 1.684.811 2.196.522.511 1.245.759 2.056.759.824 0 1.514-.304 1.927-.782.099-.111.218-.265.236-.462.02-.215-.088-.396-.237-.55h-.001l-.296-.305-.003-.002a.65.65 0 0 0-.321-.185.6.6 0 0 0-.337.028c-.185.07-.33.217-.428.335a.7.7 0 0 1-.239.174.7.7 0 0 1-.277.071.83.83 0 0 1-.639-.3c-.173-.202-.302-.524-.302-.985 0-.474.13-.785.298-.974a.84.84 0 0 1 .643-.279c.204 0 .36.072.482.21l.003.005c.093.101.238.24.428.294.225.063.446-.01.633-.198l.304-.304c.154-.154.26-.338.24-.556-.02-.2-.14-.357-.248-.473m3.342 1.4h-.293v-.394h.325c.155 0 .217.036.238.055.016.013.039.042.039.126 0 .081-.024.123-.05.146-.029.026-.1.067-.26.067m.112 2.128h-.405v-.53h.437c.127 0 .188.039.218.07a.25.25 0 0 1 .059.175c0 .1-.03.167-.069.207-.035.037-.104.078-.24.078m-1.528 1.654h1.656c1.3 0 2.203-.826 2.203-1.883q.002-.52-.241-.892a1.4 1.4 0 0 0-.342-.36c.215-.262.35-.592.35-.988a1.6 1.6 0 0 0-.531-1.19c-.357-.323-.877-.517-1.543-.517H9.384c-.256 0-.486.066-.648.238-.158.169-.203.39-.203.597v4.16c0 .207.045.428.203.597.162.172.392.238.648.238"/><path stroke="url(#b)" stroke-width="0.55" d="M7.458 5.437h-.001c-.413-.442-1.035-.712-1.865-.712-.814 0-1.537.257-2.057.778-.521.52-.81 1.276-.81 2.217 0 .937.289 1.684.811 2.196.522.511 1.245.759 2.056.759.824 0 1.514-.304 1.927-.782.099-.111.218-.265.236-.462.02-.215-.088-.396-.237-.55h-.001l-.296-.305-.003-.002a.65.65 0 0 0-.321-.185.6.6 0 0 0-.337.028c-.185.07-.33.217-.428.335a.7.7 0 0 1-.239.174.7.7 0 0 1-.277.071.83.83 0 0 1-.639-.3c-.173-.202-.302-.524-.302-.985 0-.474.13-.785.298-.974a.84.84 0 0 1 .643-.279c.204 0 .36.072.482.21l.003.005c.093.101.238.24.428.294.225.063.446-.01.633-.198l.304-.304c.154-.154.26-.338.24-.556-.02-.2-.14-.357-.248-.473Zm3.342 1.4h-.293v-.394h.325c.155 0 .217.036.238.055.016.013.039.042.039.126 0 .081-.024.123-.05.146-.029.026-.1.067-.26.067Zm.112 2.128h-.405v-.53h.437c.127 0 .188.039.218.07a.25.25 0 0 1 .059.175c0 .1-.03.167-.069.207-.035.037-.104.078-.24.078Zm-1.528 1.654h1.656c1.3 0 2.203-.826 2.203-1.883q.002-.52-.241-.892a1.4 1.4 0 0 0-.342-.36c.215-.262.35-.592.35-.988a1.6 1.6 0 0 0-.531-1.19c-.357-.323-.877-.517-1.543-.517H9.384c-.256 0-.486.066-.648.238-.158.169-.203.39-.203.597v4.16c0 .207.045.428.203.597.162.172.392.238.648.238Z"/><path stroke="#ABABAB" stroke-opacity="0.2" stroke-width="0.55" d="M7.458 5.437h-.001c-.413-.442-1.035-.712-1.865-.712-.814 0-1.537.257-2.057.778-.521.52-.81 1.276-.81 2.217 0 .937.289 1.684.811 2.196.522.511 1.245.759 2.056.759.824 0 1.514-.304 1.927-.782.099-.111.218-.265.236-.462.02-.215-.088-.396-.237-.55h-.001l-.296-.305-.003-.002a.65.65 0 0 0-.321-.185.6.6 0 0 0-.337.028c-.185.07-.33.217-.428.335a.7.7 0 0 1-.239.174.7.7 0 0 1-.277.071.83.83 0 0 1-.639-.3c-.173-.202-.302-.524-.302-.985 0-.474.13-.785.298-.974a.84.84 0 0 1 .643-.279c.204 0 .36.072.482.21l.003.005c.093.101.238.24.428.294.225.063.446-.01.633-.198l.304-.304c.154-.154.26-.338.24-.556-.02-.2-.14-.357-.248-.473Zm3.342 1.4h-.293v-.394h.325c.155 0 .217.036.238.055.016.013.039.042.039.126 0 .081-.024.123-.05.146-.029.026-.1.067-.26.067Zm.112 2.128h-.405v-.53h.437c.127 0 .188.039.218.07a.25.25 0 0 1 .059.175c0 .1-.03.167-.069.207-.035.037-.104.078-.24.078Zm-1.528 1.654h1.656c1.3 0 2.203-.826 2.203-1.883q.002-.52-.241-.892a1.4 1.4 0 0 0-.342-.36c.215-.262.35-.592.35-.988a1.6 1.6 0 0 0-.531-1.19c-.357-.323-.877-.517-1.543-.517H9.384c-.256 0-.486.066-.648.238-.158.169-.203.39-.203.597v4.16c0 .207.045.428.203.597.162.172.392.238.648.238Z"/><defs><linearGradient id="a" x1="7.98391" x2="7.98391" y1="5" y2="10.4" gradientUnits="userSpaceOnUse"><stop stop-color="#FBEE3E"/><stop offset="1" stop-color="#CB5915"/></linearGradient><linearGradient id="b" x1="7.98391" x2="7.98391" y1="5" y2="10.4" gradientUnits="userSpaceOnUse"><stop stop-color="#B91A8E"/><stop offset="1" stop-color="#4A1A9A"/></linearGradient></defs></svg>