<svg xmlns="http://www.w3.org/2000/svg" width="16" height="16" viewBox="0 0 16 16" fill="none">
  <path d="M7.45779 5.43716L7.45676 5.43606C7.04408 4.99524 6.42237 4.725 5.592 4.725C4.77808 4.725 4.05484 4.98225 3.53455 5.50255C3.01363 6.02346 2.725 6.77913 2.725 7.72C2.725 8.65738 3.01401 9.40414 3.53648 9.91637C4.05766 10.4273 4.78065 10.675 5.592 10.675C6.41624 10.675 7.10551 10.3712 7.51887 9.8932C7.61797 9.78155 7.73743 9.62759 7.75491 9.43141C7.77415 9.21555 7.66655 9.0345 7.51752 8.88066L7.51703 8.88016L7.22103 8.57616L7.22105 8.57614L7.21845 8.57355C7.12659 8.48168 7.01897 8.41615 6.89672 8.38937C6.7743 8.36255 6.65911 8.3794 6.5602 8.4166C6.37482 8.48632 6.22947 8.63352 6.13232 8.75244C6.07908 8.8153 5.99444 8.87853 5.89318 8.92605C5.79086 8.97406 5.69085 8.997 5.616 8.997C5.37619 8.997 5.14864 8.89803 4.97702 8.6973C4.80416 8.49511 4.675 8.17298 4.675 7.712C4.675 7.23766 4.80478 6.9268 4.97318 6.73811C5.14023 6.55091 5.36691 6.459 5.616 6.459C5.81987 6.459 5.97565 6.53114 6.09755 6.66967L6.09751 6.66971L6.10128 6.67382C6.19413 6.77511 6.3386 6.91468 6.52903 6.96786C6.75443 7.03081 6.97521 6.9577 7.16245 6.77045L7.46645 6.46645C7.62042 6.31249 7.72674 6.1281 7.70574 5.90968C7.68658 5.71043 7.56524 5.55321 7.45778 5.43716L7.45779 5.43716ZM10.7998 6.837H10.5068V6.443H10.8318C10.9867 6.443 11.0491 6.47899 11.0704 6.49767C11.0856 6.51099 11.1088 6.54014 11.1088 6.624C11.1088 6.70541 11.0848 6.74661 11.0591 6.77019C11.0304 6.79647 10.9596 6.837 10.7998 6.837ZM10.9118 8.965H10.5068V8.435H10.9438C11.0709 8.435 11.1321 8.47374 11.1622 8.50523C11.195 8.5395 11.2208 8.59647 11.2208 8.68C11.2208 8.78053 11.1905 8.84694 11.1525 8.88651C11.1167 8.92371 11.0477 8.965 10.9118 8.965ZM9.38381 10.619H11.0398C12.3407 10.619 13.2428 9.79261 13.2428 8.736C13.2428 8.38962 13.1648 8.09248 13.0017 7.84409C12.9088 7.70255 12.793 7.584 12.66 7.48386C12.8748 7.2217 13.0108 6.89228 13.0108 6.496C13.0108 6.06133 12.8361 5.62806 12.479 5.30583C12.1218 4.98347 11.6015 4.789 10.9358 4.789H9.38381C9.12826 4.789 8.8979 4.85455 8.73625 5.02685C8.57774 5.19581 8.53281 5.41749 8.53281 5.624V9.784C8.53281 9.99051 8.57774 10.2122 8.73625 10.3812C8.8979 10.5535 9.12826 10.619 9.38381 10.619Z" fill="url(#paint0_linear_73_5497)"/>
  <path d="M7.45779 5.43716L7.45676 5.43606C7.04408 4.99524 6.42237 4.725 5.592 4.725C4.77808 4.725 4.05484 4.98225 3.53455 5.50255C3.01363 6.02346 2.725 6.77913 2.725 7.72C2.725 8.65738 3.01401 9.40414 3.53648 9.91637C4.05766 10.4273 4.78065 10.675 5.592 10.675C6.41624 10.675 7.10551 10.3712 7.51887 9.8932C7.61797 9.78155 7.73743 9.62759 7.75491 9.43141C7.77415 9.21555 7.66655 9.0345 7.51752 8.88066L7.51703 8.88016L7.22103 8.57616L7.22105 8.57614L7.21845 8.57355C7.12659 8.48168 7.01897 8.41615 6.89672 8.38937C6.7743 8.36255 6.65911 8.3794 6.5602 8.4166C6.37482 8.48632 6.22947 8.63352 6.13232 8.75244C6.07908 8.8153 5.99444 8.87853 5.89318 8.92605C5.79086 8.97406 5.69085 8.997 5.616 8.997C5.37619 8.997 5.14864 8.89803 4.97702 8.6973C4.80416 8.49511 4.675 8.17298 4.675 7.712C4.675 7.23766 4.80478 6.9268 4.97318 6.73811C5.14023 6.55091 5.36691 6.459 5.616 6.459C5.81987 6.459 5.97565 6.53114 6.09755 6.66967L6.09751 6.66971L6.10128 6.67382C6.19413 6.77511 6.3386 6.91468 6.52903 6.96786C6.75443 7.03081 6.97521 6.9577 7.16245 6.77045L7.46645 6.46645C7.62042 6.31249 7.72674 6.1281 7.70574 5.90968C7.68658 5.71043 7.56524 5.55321 7.45778 5.43716L7.45779 5.43716ZM10.7998 6.837H10.5068V6.443H10.8318C10.9867 6.443 11.0491 6.47899 11.0704 6.49767C11.0856 6.51099 11.1088 6.54014 11.1088 6.624C11.1088 6.70541 11.0848 6.74661 11.0591 6.77019C11.0304 6.79647 10.9596 6.837 10.7998 6.837ZM10.9118 8.965H10.5068V8.435H10.9438C11.0709 8.435 11.1321 8.47374 11.1622 8.50523C11.195 8.5395 11.2208 8.59647 11.2208 8.68C11.2208 8.78053 11.1905 8.84694 11.1525 8.88651C11.1167 8.92371 11.0477 8.965 10.9118 8.965ZM9.38381 10.619H11.0398C12.3407 10.619 13.2428 9.79261 13.2428 8.736C13.2428 8.38962 13.1648 8.09248 13.0017 7.84409C12.9088 7.70255 12.793 7.584 12.66 7.48386C12.8748 7.2217 13.0108 6.89228 13.0108 6.496C13.0108 6.06133 12.8361 5.62806 12.479 5.30583C12.1218 4.98347 11.6015 4.789 10.9358 4.789H9.38381C9.12826 4.789 8.8979 4.85455 8.73625 5.02685C8.57774 5.19581 8.53281 5.41749 8.53281 5.624V9.784C8.53281 9.99051 8.57774 10.2122 8.73625 10.3812C8.8979 10.5535 9.12826 10.619 9.38381 10.619Z" stroke="url(#paint1_linear_73_5497)" stroke-width="0.55"/>
  <path d="M7.45779 5.43716L7.45676 5.43606C7.04408 4.99524 6.42237 4.725 5.592 4.725C4.77808 4.725 4.05484 4.98225 3.53455 5.50255C3.01363 6.02346 2.725 6.77913 2.725 7.72C2.725 8.65738 3.01401 9.40414 3.53648 9.91637C4.05766 10.4273 4.78065 10.675 5.592 10.675C6.41624 10.675 7.10551 10.3712 7.51887 9.8932C7.61797 9.78155 7.73743 9.62759 7.75491 9.43141C7.77415 9.21555 7.66655 9.0345 7.51752 8.88066L7.51703 8.88016L7.22103 8.57616L7.22105 8.57614L7.21845 8.57355C7.12659 8.48168 7.01897 8.41615 6.89672 8.38937C6.7743 8.36255 6.65911 8.3794 6.5602 8.4166C6.37482 8.48632 6.22947 8.63352 6.13232 8.75244C6.07908 8.8153 5.99444 8.87853 5.89318 8.92605C5.79086 8.97406 5.69085 8.997 5.616 8.997C5.37619 8.997 5.14864 8.89803 4.97702 8.6973C4.80416 8.49511 4.675 8.17298 4.675 7.712C4.675 7.23766 4.80478 6.9268 4.97318 6.73811C5.14023 6.55091 5.36691 6.459 5.616 6.459C5.81987 6.459 5.97565 6.53114 6.09755 6.66967L6.09751 6.66971L6.10128 6.67382C6.19413 6.77511 6.3386 6.91468 6.52903 6.96786C6.75443 7.03081 6.97521 6.9577 7.16245 6.77045L7.46645 6.46645C7.62042 6.31249 7.72674 6.1281 7.70574 5.90968C7.68658 5.71043 7.56524 5.55321 7.45778 5.43716L7.45779 5.43716ZM10.7998 6.837H10.5068V6.443H10.8318C10.9867 6.443 11.0491 6.47899 11.0704 6.49767C11.0856 6.51099 11.1088 6.54014 11.1088 6.624C11.1088 6.70541 11.0848 6.74661 11.0591 6.77019C11.0304 6.79647 10.9596 6.837 10.7998 6.837ZM10.9118 8.965H10.5068V8.435H10.9438C11.0709 8.435 11.1321 8.47374 11.1622 8.50523C11.195 8.5395 11.2208 8.59647 11.2208 8.68C11.2208 8.78053 11.1905 8.84694 11.1525 8.88651C11.1167 8.92371 11.0477 8.965 10.9118 8.965ZM9.38381 10.619H11.0398C12.3407 10.619 13.2428 9.79261 13.2428 8.736C13.2428 8.38962 13.1648 8.09248 13.0017 7.84409C12.9088 7.70255 12.793 7.584 12.66 7.48386C12.8748 7.2217 13.0108 6.89228 13.0108 6.496C13.0108 6.06133 12.8361 5.62806 12.479 5.30583C12.1218 4.98347 11.6015 4.789 10.9358 4.789H9.38381C9.12826 4.789 8.8979 4.85455 8.73625 5.02685C8.57774 5.19581 8.53281 5.41749 8.53281 5.624V9.784C8.53281 9.99051 8.57774 10.2122 8.73625 10.3812C8.8979 10.5535 9.12826 10.619 9.38381 10.619Z" stroke="#ABABAB" stroke-opacity="0.2" stroke-width="0.55"/>
  <defs>
    <linearGradient id="paint0_linear_73_5497" x1="7.98391" y1="5" x2="7.98391" y2="10.4" gradientUnits="userSpaceOnUse">
      <stop stop-color="#FBEE3E"/>
      <stop offset="1" stop-color="#CB5915"/>
    </linearGradient>
    <linearGradient id="paint1_linear_73_5497" x1="7.98391" y1="5" x2="7.98391" y2="10.4" gradientUnits="userSpaceOnUse">
      <stop stop-color="#B91A8E"/>
      <stop offset="1" stop-color="#4A1A9A"/>
    </linearGradient>
  </defs>
</svg>