<svg aria-hidden="true" style="position: absolute; width: 0; height: 0; overflow: hidden;" version="1.1" xmlns="http://www.w3.org/2000/svg" xmlns:xlink="http://www.w3.org/1999/xlink">
  <symbol id="icon-bonus" viewBox="0 0 120 120">
    <g clip-path="url(#clip0_2075_1187)">
      <path d="M15 45C15 43.6739 15.5268 42.4021 16.4645 41.4645C17.4021 40.5268 18.6739 40 20 40H100C101.326 40 102.598 40.5268 103.536 41.4645C104.473 42.4021 105 43.6739 105 45V55C105 56.3261 104.473 57.5979 103.536 58.5355C102.598 59.4732 101.326 60 100 60H20C18.6739 60 17.4021 59.4732 16.4645 58.5355C15.5268 57.5979 15 56.3261 15 55V45Z" stroke="url(#paint0_linear_2075_1187)" stroke-width="6" stroke-linecap="round" stroke-linejoin="round"/>
      <path d="M60 40V105" stroke="url(#paint1_linear_2075_1187)" stroke-width="6" stroke-linecap="round" stroke-linejoin="round"/>
      <path d="M95 60V95C95 97.6522 93.9464 100.196 92.0711 102.071C90.1957 103.946 87.6522 105 85 105H35C32.3478 105 29.8043 103.946 27.9289 102.071C26.0536 100.196 25 97.6522 25 95V60" stroke="url(#paint2_linear_2075_1187)" stroke-width="6" stroke-linecap="round" stroke-linejoin="round"/>
      <path d="M37.5 40C34.1848 40 31.0054 38.683 28.6612 36.3388C26.317 33.9946 25 30.8152 25 27.5C25 24.1848 26.317 21.0054 28.6612 18.6612C31.0054 16.3169 34.1848 15 37.5 15C42.3234 14.916 47.0501 17.2563 51.0637 21.7158C55.0772 26.1753 58.1914 32.547 60 40C61.8086 32.547 64.9228 26.1753 68.9363 21.7158C72.9499 17.2563 77.6766 14.916 82.5 15C85.8152 15 88.9946 16.3169 91.3388 18.6612C93.683 21.0054 95 24.1848 95 27.5C95 30.8152 93.683 33.9946 91.3388 36.3388C88.9946 38.683 85.8152 40 82.5 40" stroke="url(#paint3_linear_2075_1187)" stroke-width="6" stroke-linecap="round" stroke-linejoin="round"/>
    </g>
    <defs>
      <linearGradient id="paint0_linear_2075_1187" x1="60" y1="40" x2="60" y2="60" gradientUnits="userSpaceOnUse">
        <stop stop-color="#B91A8E"/>
        <stop offset="1" stop-color="#4A1A9A"/>
      </linearGradient>
      <linearGradient id="paint1_linear_2075_1187" x1="60.5" y1="40" x2="60.5" y2="105" gradientUnits="userSpaceOnUse">
        <stop stop-color="#B91A8E"/>
        <stop offset="1" stop-color="#4A1A9A"/>
      </linearGradient>
      <linearGradient id="paint2_linear_2075_1187" x1="60" y1="60" x2="60" y2="105" gradientUnits="userSpaceOnUse">
        <stop stop-color="#B91A8E"/>
        <stop offset="1" stop-color="#4A1A9A"/>
      </linearGradient>
      <linearGradient id="paint3_linear_2075_1187" x1="60" y1="14.9978" x2="60" y2="40" gradientUnits="userSpaceOnUse">
        <stop stop-color="#B91A8E"/>
        <stop offset="1" stop-color="#4A1A9A"/>
      </linearGradient>
      <clipPath id="clip0_2075_1187">
        <rect width="120" height="120" fill="white"/>
      </clipPath>
    </defs>
  </symbol>
</svg>
