<svg xmlns="http://www.w3.org/2000/svg" width="120" height="120" viewBox="0 0 120 120" fill="none">
  <defs>
   
    <symbol id="icon-family" viewBox="0 0 120 120">
      <g clip-path="url(#clip0_2075_53)">
        <path d="M50 65C50 67.6522 51.0536 70.1957 52.9289 72.0711C54.8043 73.9464 57.3478 75 60 75C62.6522 75 65.1957 73.9464 67.0711 72.0711C68.9464 70.1957 70 67.6522 70 65C70 62.3478 68.9464 59.8043 67.0711 57.9289C65.1957 56.0536 62.6522 55 60 55C57.3478 55 54.8043 56.0536 52.9289 57.9289C51.0536 59.8043 50 62.3478 50 65Z" stroke="url(#paint0_linear_2075_53)" stroke-width="6" stroke-linecap="round" stroke-linejoin="round"/>
        <path d="M40 105V100C40 97.3478 41.0536 94.8043 42.9289 92.9289C44.8043 91.0536 47.3478 90 50 90H70C72.6522 90 75.1957 91.0536 77.0711 92.9289C78.9464 94.8043 80 97.3478 80 100V105" stroke="url(#paint1_linear_2075_53)" stroke-width="6" stroke-linecap="round" stroke-linejoin="round"/>
        <path d="M75 25C75 27.6522 76.0536 30.1957 77.9289 32.0711C79.8043 33.9464 82.3478 35 85 35C87.6522 35 90.1957 33.9464 92.0711 32.0711C93.9464 30.1957 95 27.6522 95 25C95 22.3478 93.9464 19.8043 92.0711 17.9289C90.1957 16.0536 87.6522 15 85 15C82.3478 15 79.8043 16.0536 77.9289 17.9289C76.0536 19.8043 75 22.3478 75 25Z" stroke="url(#paint2_linear_2075_53)" stroke-width="6" stroke-linecap="round" stroke-linejoin="round"/>
        <path d="M85 50H95C97.6522 50 100.196 51.0536 102.071 52.9289C103.946 54.8043 105 57.3478 105 60V65" stroke="url(#paint3_linear_2075_53)" stroke-width="6" stroke-linecap="round" stroke-linejoin="round"/>
        <path d="M25 25C25 27.6522 26.0536 30.1957 27.9289 32.0711C29.8043 33.9464 32.3478 35 35 35C37.6522 35 40.1957 33.9464 42.0711 32.0711C43.9464 30.1957 45 27.6522 45 25C45 22.3478 43.9464 19.8043 42.0711 17.9289C40.1957 16.0536 37.6522 15 35 15C32.3478 15 29.8043 16.0536 27.9289 17.9289C26.0536 19.8043 25 22.3478 25 25Z" stroke="url(#paint4_linear_2075_53)" stroke-width="6" stroke-linecap="round" stroke-linejoin="round"/>
        <path d="M15 65V60C15 57.3478 16.0536 54.8043 17.9289 52.9289C19.8043 51.0536 22.3478 50 25 50H35" stroke="url(#paint5_linear_2075_53)" stroke-width="6" stroke-linecap="round" stroke-linejoin="round"/>
      </g>
    </symbol>
 
    <linearGradient id="paint0_linear_2075_53" x1="60" y1="55" x2="60" y2="75" gradientUnits="userSpaceOnUse">
      <stop stop-color="#B91A8E"/>
      <stop offset="1" stop-color="#4A1A9A"/>
    </linearGradient>
    <linearGradient id="paint1_linear_2075_53" x1="60" y1="90" x2="60" y2="105" gradientUnits="userSpaceOnUse">
      <stop stop-color="#B91A8E"/>
      <stop offset="1" stop-color="#4A1A9A"/>
    </linearGradient>
    <linearGradient id="paint2_linear_2075_53" x1="85" y1="15" x2="85" y2="35" gradientUnits="userSpaceOnUse">
      <stop stop-color="#B91A8E"/>
      <stop offset="1" stop-color="#4A1A9A"/>
    </linearGradient>
    <linearGradient id="paint3_linear_2075_53" x1="95" y1="50" x2="95" y2="65" gradientUnits="userSpaceOnUse">
      <stop stop-color="#B91A8E"/>
      <stop offset="1" stop-color="#4A1A9A"/>
    </linearGradient>
    <linearGradient id="paint4_linear_2075_53" x1="35" y1="15" x2="35" y2="35" gradientUnits="userSpaceOnUse">
      <stop stop-color="#B91A8E"/>
      <stop offset="1" stop-color="#4A1A9A"/>
    </linearGradient>
    <linearGradient id="paint5_linear_2075_53" x1="25" y1="50" x2="25" y2="65" gradientUnits="userSpaceOnUse">
      <stop stop-color="#B91A8E"/>
      <stop offset="1" stop-color="#4A1A9A"/>
    </linearGradient>
  
    <clipPath id="clip0_2075_53">
      <rect width="120" height="120" fill="white"/>
    </clipPath>
  </defs>
 
  <use href="#icon_custom_2075_53" x="0" y="0" width="120" height="120"/>
</svg>
