<svg aria-hidden="true" style="position: absolute; width: 0; height: 0; overflow: hidden;" version="1.1" xmlns="http://www.w3.org/2000/svg" xmlns:xlink="http://www.w3.org/1999/xlink">
<defs>
<symbol id="icon-next" viewBox="0 0 32 32">
<path d="M19.771 5.333l8.781 8.781c0.5 0.5 0.781 1.178 0.781 1.885s-0.281 1.385-0.781 1.885l-8.781 8.781c-0.373 0.373-0.848 0.627-1.365 0.73s-1.054 0.050-1.541-0.152l-0.193-0.091c-0.437-0.224-0.804-0.563-1.060-0.982s-0.392-0.9-0.392-1.391v-3.448h-9.333c-0.707 0-1.386-0.281-1.886-0.781s-0.781-1.178-0.781-1.886v-5.333l0.007-0.2c0.050-0.671 0.353-1.298 0.846-1.755s1.141-0.712 1.814-0.711l9.333-0.001v-3.447c0-0.527 0.157-1.043 0.45-1.481s0.709-0.78 1.197-0.982 1.023-0.255 1.541-0.152c0.517 0.103 0.992 0.357 1.365 0.73z"></path>
</symbol>
<symbol id="icon-back" viewBox="0 0 32 32">
<path d="M12.781 5.333l-8.781 8.781c-0.5 0.5-0.781 1.178-0.781 1.885s0.281 1.385 0.781 1.885l8.781 8.781c0.373 0.373 0.848 0.627 1.366 0.73s1.054 0.050 1.541-0.152l0.193-0.091c0.437-0.224 0.804-0.563 1.060-0.982s0.392-0.9 0.392-1.391v-3.448h9.333c0.707 0 1.385-0.281 1.886-0.781s0.781-1.178 0.781-1.886v-5.333l-0.007-0.2c-0.050-0.671-0.353-1.298-0.846-1.755s-1.141-0.712-1.814-0.711l-9.333-0.001v-3.447c-0-0.527-0.157-1.043-0.45-1.481s-0.709-0.78-1.197-0.982c-0.487-0.202-1.023-0.255-1.541-0.152s-0.992 0.357-1.365 0.73z"></path>
</symbol>
<symbol id="icon-close" viewBox="0 0 32 32">
<path stroke-linejoin="round" stroke-linecap="round" stroke-miterlimit="4" stroke-width="2.6667" d="M8 23.085l15.085-15.085"></path>
<path stroke-linejoin="round" stroke-linecap="round" stroke-miterlimit="4" stroke-width="2.6667" d="M8 8l15.085 15.085"></path>
</symbol>
<symbol id="icon-burger" viewBox="0 0 32 32">
<path stroke-linejoin="round" stroke-linecap="round" stroke-miterlimit="4" stroke-width="2.6667" d="M5.333 8h21.333"></path>
<path stroke-linejoin="round" stroke-linecap="round" stroke-miterlimit="4" stroke-width="2.6667" d="M5.333 16h21.333"></path>
<path stroke-linejoin="round" stroke-linecap="round" stroke-miterlimit="4" stroke-width="2.6667" d="M5.333 24h21.333"></path>
</symbol>
<symbol id="icon-star-filled" viewBox="0 0 32 32">
<path d="M23.048 29.332c-1.502 0.001-3.852-1.217-7.051-3.653-3.196 2.437-5.547 3.655-7.051 3.654-2.423 0-2.643-3.166-0.66-9.498-8.346-6.309-7.397-9.463 2.847-9.463h0.101c1.587-5.137 3.175-7.705 4.765-7.705 1.587 0 3.175 2.568 4.765 7.705h0.101c10.244 0 11.192 3.154 2.844 9.462 1.982 6.334 1.761 9.5-0.663 9.498z"></path>
</symbol>
<symbol id="icon-namestar-default" viewBox="0 0 32 32">
<path stroke-linejoin="round" stroke-linecap="round" stroke-miterlimit="4" stroke-width="2.6667" d="M23.048 29.332c-1.502 0.001-3.852-1.217-7.051-3.653-3.196 2.437-5.547 3.655-7.051 3.654-2.423 0-2.643-3.166-0.66-9.498-8.346-6.309-7.397-9.463 2.847-9.463h0.101c1.587-5.137 3.175-7.705 4.765-7.705 1.587 0 3.175 2.568 4.765 7.705h0.101c10.245 0 11.193 3.154 2.844 9.462 1.982 6.334 1.761 9.5-0.663 9.498z"></path>
</symbol>
<symbol id="icon-plus" viewBox="0 0 32 32">
<path stroke-linejoin="round" stroke-linecap="round" stroke-miterlimit="4" stroke-width="2.6667" d="M16 6.667v18.667"></path>
<path stroke-linejoin="round" stroke-linecap="round" stroke-miterlimit="4" stroke-width="2.6667" d="M6.667 16h18.667"></path>
</symbol>
<symbol id="icon-minus" viewBox="0 0 32 32">
<path stroke-linejoin="round" stroke-linecap="round" stroke-miterlimit="4" stroke-width="2.6667" d="M6.667 16h18.667"></path>
<path stroke-linejoin="round" stroke-linecap="round" stroke-miterlimit="4" stroke-width="2.6667" d="M6.667 16h18.667"></path>
</symbol>
<symbol id="icon-google-play" viewBox="0 0 32 32">
<path stroke-linejoin="round" stroke-linecap="round" stroke-miterlimit="4" stroke-width="1.1429" d="M5.333 4.947v22.107c0 0.164 0.043 0.325 0.125 0.467s0.2 0.26 0.342 0.341c0.142 0.082 0.303 0.125 0.467 0.125s0.325-0.043 0.467-0.125l19.496-11.227c0.112-0.064 0.204-0.157 0.269-0.268s0.098-0.238 0.098-0.367-0.034-0.255-0.098-0.367c-0.064-0.112-0.157-0.204-0.269-0.268l-19.496-11.225c-0.142-0.082-0.303-0.125-0.467-0.125s-0.325 0.043-0.467 0.125c-0.142 0.082-0.26 0.2-0.342 0.342s-0.125 0.302-0.125 0.466z"></path>
<path stroke-linejoin="round" stroke-linecap="round" stroke-miterlimit="4" stroke-width="1.1429" d="M20 12l-14 15.333"></path>
<path stroke-linejoin="round" stroke-linecap="round" stroke-miterlimit="4" stroke-width="1.1429" d="M6 4.667l14 15.333"></path>
</symbol>
<symbol id="icon-point" viewBox="0 0 32 32">
<path d="M16 9.333c1.306-0 2.584 0.384 3.674 1.103s1.945 1.744 2.458 2.945c0.513 1.201 0.662 2.527 0.428 3.812s-0.84 2.473-1.744 3.417c-0.903 0.943-2.064 1.601-3.338 1.89s-2.604 0.199-3.827-0.262c-1.222-0.46-2.283-1.27-3.049-2.327s-1.205-2.317-1.262-3.622l-0.007-0.289 0.007-0.289c0.075-1.716 0.809-3.338 2.050-4.526s2.892-1.851 4.61-1.852z"></path>
</symbol>
<symbol id="icon-game" viewBox="0 0 32 32">
<path stroke-linejoin="round" stroke-linecap="round" stroke-miterlimit="4" stroke-width="2.6667" d="M16 6.667h4.667c1.768 0 3.464 0.702 4.714 1.953s1.953 2.946 1.953 4.714c0 1.768-0.702 3.464-1.953 4.714s-2.946 1.953-4.714 1.953h-7.333l-5.353 5.636c-0.458 0.482-1.060 0.802-1.716 0.912s-1.33 0.004-1.92-0.302-1.065-0.796-1.353-1.395c-0.288-0.599-0.373-1.276-0.242-1.928l2.179-10.897c0.302-1.511 1.119-2.871 2.311-3.848s2.686-1.511 4.227-1.51h4.533z"></path>
<path stroke-linejoin="round" stroke-linecap="round" stroke-miterlimit="4" stroke-width="2.6667" d="M18.667 20l5.427 5.712c0.457 0.481 1.058 0.801 1.712 0.911s1.327 0.006 1.916-0.298c0.59-0.304 1.065-0.791 1.354-1.388s0.378-1.272 0.251-1.923l-2.133-10.976"></path>
<path stroke-linejoin="round" stroke-linecap="round" stroke-miterlimit="4" stroke-width="2.6667" d="M10.667 12v2.667"></path>
<path stroke-linejoin="round" stroke-linecap="round" stroke-miterlimit="4" stroke-width="2.6667" d="M9.333 13.333h2.667"></path>
<path stroke-linejoin="round" stroke-linecap="round" stroke-miterlimit="4" stroke-width="2.6667" d="M18.667 13.333h2.667"></path>
</symbol>
<symbol id="icon-image" viewBox="0 0 32 32">
<path stroke-linejoin="round" stroke-linecap="round" stroke-miterlimit="4" stroke-width="2.6667" d="M20 10.667h0.013"></path>
<path stroke-linejoin="round" stroke-linecap="round" stroke-miterlimit="4" stroke-width="2.6667" d="M8 17.333l3.525-3.525c0.15-0.15 0.328-0.269 0.524-0.35s0.406-0.123 0.618-0.123 0.422 0.042 0.618 0.123c0.196 0.081 0.374 0.2 0.524 0.35l4.859 4.859"></path>
<path stroke-linejoin="round" stroke-linecap="round" stroke-miterlimit="4" stroke-width="2.6667" d="M17.333 17.333l2.192-2.192c0.15-0.15 0.328-0.269 0.524-0.35s0.406-0.123 0.618-0.123 0.422 0.042 0.618 0.123c0.196 0.081 0.374 0.2 0.524 0.35l2.192 2.192"></path>
<path stroke-linejoin="round" stroke-linecap="round" stroke-miterlimit="4" stroke-width="2.6667" d="M5.333 10.667v-2.667c0-0.707 0.281-1.386 0.781-1.886s1.178-0.781 1.886-0.781h2.667"></path>
<path stroke-linejoin="round" stroke-linecap="round" stroke-miterlimit="4" stroke-width="2.6667" d="M5.333 21.333v2.667c0 0.707 0.281 1.385 0.781 1.886s1.178 0.781 1.886 0.781h2.667"></path>
<path stroke-linejoin="round" stroke-linecap="round" stroke-miterlimit="4" stroke-width="2.6667" d="M21.333 5.333h2.667c0.707 0 1.385 0.281 1.886 0.781s0.781 1.178 0.781 1.886v2.667"></path>
<path stroke-linejoin="round" stroke-linecap="round" stroke-miterlimit="4" stroke-width="2.6667" d="M21.333 26.667h2.667c0.707 0 1.385-0.281 1.886-0.781s0.781-1.178 0.781-1.886v-2.667"></path>
</symbol>
<symbol id="icon-update" viewBox="0 0 32 32">
<path stroke-linejoin="round" stroke-linecap="round" stroke-miterlimit="4" stroke-width="2.6667" d="M26.667 14.667c-0.326-2.346-1.415-4.521-3.098-6.187s-3.868-2.734-6.217-3.037-4.733 0.175-6.785 1.36c-2.051 1.185-3.656 3.012-4.567 5.198M5.333 6.667v5.333h5.333"></path>
<path stroke-linejoin="round" stroke-linecap="round" stroke-miterlimit="4" stroke-width="2.6667" d="M5.333 17.333c0.326 2.346 1.415 4.52 3.098 6.187s3.868 2.734 6.217 3.037c2.349 0.303 4.733-0.175 6.785-1.359s3.656-3.012 4.567-5.198M26.667 25.333v-5.333h-5.333"></path>
</symbol>
<symbol id="icon-family" viewBox="0 0 32 32">
<path stroke-linejoin="round" stroke-linecap="round" stroke-miterlimit="4" stroke-width="2.6667" d="M13.333 17.333c0 0.707 0.281 1.385 0.781 1.886s1.178 0.781 1.886 0.781c0.707 0 1.385-0.281 1.886-0.781s0.781-1.178 0.781-1.886c0-0.707-0.281-1.385-0.781-1.886s-1.178-0.781-1.886-0.781c-0.707 0-1.385 0.281-1.886 0.781s-0.781 1.178-0.781 1.886z"></path>
<path stroke-linejoin="round" stroke-linecap="round" stroke-miterlimit="4" stroke-width="2.6667" d="M10.667 28v-1.333c0-0.707 0.281-1.385 0.781-1.886s1.178-0.781 1.886-0.781h5.333c0.707 0 1.385 0.281 1.886 0.781s0.781 1.178 0.781 1.886v1.333"></path>
<path stroke-linejoin="round" stroke-linecap="round" stroke-miterlimit="4" stroke-width="2.6667" d="M20 6.667c0 0.707 0.281 1.386 0.781 1.886s1.178 0.781 1.886 0.781c0.707 0 1.385-0.281 1.886-0.781s0.781-1.178 0.781-1.886c0-0.707-0.281-1.386-0.781-1.886s-1.178-0.781-1.886-0.781c-0.707 0-1.385 0.281-1.886 0.781s-0.781 1.178-0.781 1.886z"></path>
<path stroke-linejoin="round" stroke-linecap="round" stroke-miterlimit="4" stroke-width="2.6667" d="M22.667 13.333h2.667c0.707 0 1.385 0.281 1.886 0.781s0.781 1.178 0.781 1.886v1.333"></path>
<path stroke-linejoin="round" stroke-linecap="round" stroke-miterlimit="4" stroke-width="2.6667" d="M6.667 6.667c0 0.707 0.281 1.386 0.781 1.886s1.178 0.781 1.886 0.781c0.707 0 1.386-0.281 1.886-0.781s0.781-1.178 0.781-1.886c0-0.707-0.281-1.386-0.781-1.886s-1.178-0.781-1.886-0.781c-0.707 0-1.386 0.281-1.886 0.781s-0.781 1.178-0.781 1.886z"></path>
<path stroke-linejoin="round" stroke-linecap="round" stroke-miterlimit="4" stroke-width="2.6667" d="M4 17.333v-1.333c0-0.707 0.281-1.385 0.781-1.886s1.178-0.781 1.886-0.781h2.667"></path>
</symbol>
<symbol id="icon-bonus" viewBox="0 0 32 32">
<path stroke-linejoin="round" stroke-linecap="round" stroke-miterlimit="4" stroke-width="2.6667" d="M4 12c0-0.354 0.14-0.693 0.391-0.943s0.589-0.391 0.943-0.391h21.333c0.354 0 0.693 0.14 0.943 0.391s0.391 0.589 0.391 0.943v2.667c0 0.354-0.141 0.693-0.391 0.943s-0.589 0.391-0.943 0.391h-21.333c-0.354 0-0.693-0.141-0.943-0.391s-0.391-0.589-0.391-0.943v-2.667z"></path>
<path stroke-linejoin="round" stroke-linecap="round" stroke-miterlimit="4" stroke-width="2.6667" d="M16 10.667v17.333"></path>
<path stroke-linejoin="round" stroke-linecap="round" stroke-miterlimit="4" stroke-width="2.6667" d="M25.333 16v9.333c0 0.707-0.281 1.385-0.781 1.886s-1.178 0.781-1.886 0.781h-13.333c-0.707 0-1.386-0.281-1.886-0.781s-0.781-1.178-0.781-1.886v-9.333"></path>
<path stroke-linejoin="round" stroke-linecap="round" stroke-miterlimit="4" stroke-width="2.6667" d="M10 10.667c-0.884 0-1.732-0.351-2.357-0.976s-0.976-1.473-0.976-2.357c0-0.884 0.351-1.732 0.976-2.357s1.473-0.976 2.357-0.976c1.286-0.022 2.547 0.602 3.617 1.791s1.901 2.888 2.383 4.876c0.482-1.987 1.313-3.687 2.383-4.876s2.331-1.813 3.617-1.791c0.884 0 1.732 0.351 2.357 0.976s0.976 1.473 0.976 2.357-0.351 1.732-0.976 2.357c-0.625 0.625-1.473 0.976-2.357 0.976"></path>
</symbol>
<symbol id="icon-level" viewBox="0 0 32 32">
<path stroke-linejoin="round" stroke-linecap="round" stroke-miterlimit="4" stroke-width="2.6667" d="M5.333 25.333h21.333"></path>
<path stroke-linejoin="round" stroke-linecap="round" stroke-miterlimit="4" stroke-width="2.6667" d="M5.333 20l5.333-8 5.333 2.667 5.333-6.667 5.333 5.333"></path>
</symbol>
</defs>
</svg>
