<svg aria-hidden="true" style="position: absolute; width: 0; height: 0; overflow: hidden;" version="1.1" xmlns="http://www.w3.org/2000/svg" xmlns:xlink="http://www.w3.org/1999/xlink">
  <defs>
   
    <symbol id="icon-update" viewBox="0 0 120 120">
      <g clip-path="url(#clip0_2075_865)">
        <path d="M100 55C98.7772 46.2011 94.6953 38.0483 88.3832 31.7975C82.071 25.5467 73.8788 21.5446 65.0684 20.4078C56.2579 19.2709 47.3181 21.0624 39.626 25.5062C31.9339 29.95 25.9162 36.7997 22.5 45M20 25V45H40" stroke="url(#paint0_linear_2075_865)" stroke-width="6" stroke-linecap="round" stroke-linejoin="round"/>
        <path d="M20 65C21.2228 73.7989 25.3047 81.9517 31.6168 88.2025C37.929 94.4533 46.1212 98.4554 54.9316 99.5922C63.7421 100.729 72.6819 98.9376 80.374 94.4938C88.0661 90.05 94.0838 83.2003 97.5 75M100 95V75H80" stroke="url(#paint1_linear_2075_865)" stroke-width="6" stroke-linecap="round" stroke-linejoin="round"/>
      </g>
    </symbol>
    
    <linearGradient id="paint0_linear_2075_865" x1="60" y1="20.0747" x2="60" y2="55" gradientUnits="userSpaceOnUse">
      <stop stop-color="#B91A8E"/>
      <stop offset="1" stop-color="#4A1A9A"/>
    </linearGradient>
    <linearGradient id="paint1_linear_2075_865" x1="60" y1="65" x2="60" y2="99.9253" gradientUnits="userSpaceOnUse">
      <stop stop-color="#B91A8E"/>
      <stop offset="1" stop-color="#4A1A9A"/>
    </linearGradient>
   
    <clipPath id="clip0_2075_865">
      <rect width="120" height="120" fill="white"/>
    </clipPath>
  </defs>

</svg>
